<svg xmlns="http://www.w3.org/2000/svg" width="203.302" height="110" viewBox="0 0 203.302 110">
  <g id="Group_72" data-name="Group 72" transform="translate(-169.913 -69.612)">
    <g id="Group_71" data-name="Group 71" transform="translate(169.913 148.403)">
      <g id="Group_70" data-name="Group 70" transform="translate(0)">
        <path id="Path_36" data-name="Path 36" d="M189.3,184.412H175.2v13.145l3.059.167c0,.041-.041.578-.041.62l-8.309.041c0-.206.041-.372.041-.578l2.149-.29a.616.616,0,0,0,.5-.5V170.814a.615.615,0,0,0-.5-.539l-2.149-.206c0-.249-.041-.414-.041-.622l8.309-.041c0,.082.041.579.041.62l-3.059.29v13.27h14.1V170.854a.663.663,0,0,0-.5-.579l-2.15-.206a3.347,3.347,0,0,1-.041-.622l7.855-.041c0,.082.042.579.042.62l-2.6.29v27.241l3.018.167c0,.041-.041.578-.041.62l-8.268.041a2.712,2.712,0,0,1,.041-.578l2.15-.29a.662.662,0,0,0,.5-.537V184.412Z" transform="translate(-169.913 -167.342)" fill="#d7df23"/>
        <path id="Path_37" data-name="Path 37" d="M212.994,189.913c-.041.455-.041.91-.041,1.364,0,7.812,3.927,8.929,6.945,8.929a19.834,19.834,0,0,0,6.532-1.116l.289.414c-1.323.827-4.712,1.447-7.235,1.447-3.8,0-9.218-1.364-9.218-9.631,0-7.814,4.837-11.2,9.508-11.369,5.911-.165,8.681,3.887,7.978,9.963H212.994Zm.083-.785H225.4c.5-5.209-2.025-9.1-6.242-8.186C216.219,181.522,213.656,184.25,213.077,189.128Z" transform="translate(-177.915 -169.783)" fill="#d7df23"/>
        <path id="Path_38" data-name="Path 38" d="M253.56,199.227a17.394,17.394,0,0,1-7.235,1.736c-3.059,0-5.58-1.074-5.829-4.34-.29-2.977,2.025-4.259,4.134-4.8,1.695-.372,6.035-.95,8.93-1.282v-3.637c0-6.118-3.638-6.159-4.712-6.159-2.894.041-6.035,2.273-6.945,3.016l-.165,3.225-.785.207v-5c.33-.125,4.34-2.068,7.854-2.191,1.777-.042,7.441.165,7.441,5.994v12.649c0,.786.207,1.282.662,1.282l2.522.124-.041.62c-.289.042-3.1.33-4.134.33a1.862,1.862,0,0,1-1.571-1.777h-.124Zm0-1.074v-6.82c-2.356.082-6.407.288-8.02.825a3.789,3.789,0,0,0-2.563,4.094c.165,3.141,2.191,4.05,4.092,4.05A13.312,13.312,0,0,0,253.56,198.153Z" transform="translate(-183.887 -169.796)" fill="#d7df23"/>
        <path id="Path_39" data-name="Path 39" d="M279.211,196.894l3.1.207c0,.041-.042.578-.042.62l-8.309.041c0-.206.042-.372.042-.578l2.15-.29a.478.478,0,0,0,.372-.414V168.206c0-.29-.083-.455-.248-.455l-2.522-.082.041-.578c.29-.042,2.688-.372,3.762-.372a1.655,1.655,0,0,1,1.653,1.694Z" transform="translate(-190.673 -166.719)" fill="#d7df23"/>
        <path id="Path_40" data-name="Path 40" d="M293.375,197.644a6.15,6.15,0,0,0,5.415,2.605,4.779,4.779,0,0,0,5.043-5.169c0-5.208-11-2.563-11-9.3,0-3.6,3.1-5.829,7.152-5.829a16.2,16.2,0,0,1,5.416,1.116v4.754l-.785.29-.165-3.514c-.785-.62-2.481-1.9-4.011-1.9a4.6,4.6,0,0,0-4.919,4.919c0,4.754,11,2.149,11,9.426,0,3.637-2.852,5.911-7.73,5.911a11.094,11.094,0,0,1-6.366-1.778v-4.753l.745-.29Z" transform="translate(-194.287 -169.785)" fill="#d7df23"/>
        <path id="Path_41" data-name="Path 41" d="M324.381,183.3l-.042-.042v14.3l2.811.167c0,.041-.042.578-.042.62l-8.267.041a2.716,2.716,0,0,1,.041-.578l2.15-.29a.663.663,0,0,0,.5-.537V170.813a.731.731,0,0,0-.5-.539l-2.15-.206a3.352,3.352,0,0,1-.041-.622l8.267-.041c0,.082.042.579.042.62l-2.811.247v12.94l.082-.042,10.128-12.112.124-.247a.464.464,0,0,0-.372-.539l-2.15-.206a3.352,3.352,0,0,1-.041-.622l8.06-.041c0,.082.041.579.041.62l-3.514.332-10.045,11.7L338.89,197.6l1.943.124c0,.041-.042.578-.042.62l-4.465.041Z" transform="translate(-199.321 -167.341)" fill="#d7df23"/>
        <path id="Path_42" data-name="Path 42" d="M365.685,199.227a17.39,17.39,0,0,1-7.234,1.736c-3.059,0-5.581-1.074-5.828-4.34-.29-2.977,2.025-4.259,4.133-4.8,1.7-.372,6.035-.95,8.929-1.282v-3.637c0-6.118-3.637-6.159-4.712-6.159-2.894.041-6.035,2.273-6.945,3.016l-.165,3.225-.785.207v-5c.331-.125,4.34-2.068,7.855-2.191,1.777-.042,7.441.165,7.441,5.994v12.649c0,.786.207,1.282.661,1.282l2.522.124-.042.62c-.29.042-3.1.33-4.134.33a1.862,1.862,0,0,1-1.57-1.777h-.124Zm0-1.074v-6.82c-2.356.082-6.407.288-8.02.825a3.791,3.791,0,0,0-2.563,4.094c.166,3.141,2.191,4.05,4.093,4.05A13.309,13.309,0,0,0,365.685,198.153Z" transform="translate(-206.095 -169.796)" fill="#d7df23"/>
        <path id="Path_43" data-name="Path 43" d="M390.758,185.169c1.613-2.356,3.845-4.794,6.407-4.877a9.176,9.176,0,0,1,2.811.29l-1.075,2.481a2.562,2.562,0,0,0-2.025-.786c-2.4.042-4.589,2.068-6.118,4.01v13.725l3.514.207c0,.041-.042.578-.042.62l-8.681.041a2.71,2.71,0,0,1,.042-.578l2.15-.29c.331-.042.331-.372.331-.579v-17.94c-.041-.165-.082-.29-.248-.29l-2.48-.082.041-.579c.247-.041,2.687-.372,3.72-.372a1.628,1.628,0,0,1,1.654,1.7Z" transform="translate(-212.094 -169.835)" fill="#d7df23"/>
        <path id="Path_44" data-name="Path 44" d="M414.727,174.788v4.133h5v.744h-5v13.808c0,4.671,2.563,5.331,4.629,5.331.661,0,1.447-.082,1.613-.082l.124.414a13.926,13.926,0,0,1-3.348.413c-2.315-.123-5.7-1.116-5.7-5.374v-14.51h-2.108l.331-.33,1.819-.372.33-3.969Z" transform="translate(-217.791 -168.588)" fill="#d7df23"/>
      </g>
    </g>
    <g id="XMLID_1_" transform="translate(222.808 69.612)">
      <g id="XMLID_243_" transform="translate(0 0)">
        <g id="XMLID_254_">
          <g id="XMLID_255_">
            <g id="XMLID_259_">
              <path id="XMLID_263_" d="M241.871,78.05l1.674.872a1.908,1.908,0,0,0-.371-2.437l-2.441-3.195a2.731,2.731,0,0,1,.124.8,2.76,2.76,0,0,1-3.554,2.656l3.108,2.356a1.908,1.908,0,0,0,2.648.348Z" transform="translate(-234.456 -70.464)" fill="#d7df23"/>
              <path id="XMLID_260_" d="M238.7,70.9l0,0a2.643,2.643,0,0,0-.321-.416l-.01-.015v0a2.77,2.77,0,1,0-3.916,3.916l0,0,.017.012a2.738,2.738,0,0,0,.466.353l.284.216A2.77,2.77,0,0,0,238.7,70.9Zm-.645.914s-.009-.021-.025-.058a1.428,1.428,0,0,0-.073-.161,1.8,1.8,0,0,0-.139-.236,2.556,2.556,0,0,0-.228-.267,2.036,2.036,0,0,0-.327-.25,1.912,1.912,0,0,0-.416-.191,2.018,2.018,0,0,0-.483-.08,1.946,1.946,0,0,0-.486.054l.12.435-.363-.354a1.826,1.826,0,0,0-.637.431,1.882,1.882,0,0,0-.283.381,1.858,1.858,0,0,0-.167.4,2.752,2.752,0,0,0-.07.365,1.776,1.776,0,0,0,0,.29,1.7,1.7,0,0,0,.018.191c.005.044.008.066.008.066l-.022-.063a1.226,1.226,0,0,1-.055-.184,1.818,1.818,0,0,1-.03-.7,2.026,2.026,0,0,1,.131-.458,1.875,1.875,0,0,1,.272-.463,2.091,2.091,0,0,1,.426-.4,2.005,2.005,0,0,1,1.147-.351,2.089,2.089,0,0,1,.584.09,1.924,1.924,0,0,1,.5.236,1.96,1.96,0,0,1,.379.318,1.989,1.989,0,0,1,.247.335,1.962,1.962,0,0,1,.137.288,1.285,1.285,0,0,1,.061.2l.018.069Z" transform="translate(-233.597 -69.612)" fill="#d7df23"/>
            </g>
            <g id="XMLID_256_" transform="translate(9.711 9.231)">
              <path id="XMLID_258_" d="M267.834,102.33,250.393,83.5a1.713,1.713,0,0,1,.134.666,1.752,1.752,0,0,1-1.753,1.753,1.735,1.735,0,0,1-.723-.161l18.872,17.479a.643.643,0,0,0,.91-.909Z" transform="translate(-246.657 -82.061)" fill="#d7df23"/>
              <path id="XMLID_257_" d="M248.023,84.841l-.144-.652.169.084.32.473c.034-.014.066-.028.1-.044l.065-.513.461.143a1.747,1.747,0,0,0,.495-1.219,1.709,1.709,0,0,0-.2-.782l-.155-.168c-.028-.03-.06-.061-.091-.09a1.673,1.673,0,1,0-2.274,2.455l.119.111a1.726,1.726,0,0,0,.844.227A1.8,1.8,0,0,0,248.023,84.841Z" transform="translate(-246.236 -81.627)" fill="#d7df23"/>
            </g>
          </g>
        </g>
        <g id="XMLID_244_" transform="translate(69.134 0.001)">
          <g id="XMLID_245_">
            <g id="XMLID_249_" transform="translate(21.686)">
              <path id="XMLID_253_" d="M353.76,78.05l-1.674.872a1.905,1.905,0,0,1,.371-2.437L354.9,73.29a2.731,2.731,0,0,0-.124.8,2.76,2.76,0,0,0,3.554,2.656l-3.108,2.356a1.908,1.908,0,0,1-2.648.348Z" transform="translate(-351.802 -70.465)" fill="#d7df23"/>
              <path id="XMLID_250_" d="M356.714,72.477a2.772,2.772,0,0,0,2.772,2.771,2.739,2.739,0,0,0,1.2-.277l.283-.216a2.71,2.71,0,0,0,.466-.353l.016-.012v0a2.77,2.77,0,1,0-3.915-3.916l0,0-.01.015a2.64,2.64,0,0,0-.321.416l0,0A2.757,2.757,0,0,0,356.714,72.477Zm.9-.734.018-.069a1.481,1.481,0,0,1,.061-.2,2.144,2.144,0,0,1,.138-.288,2.019,2.019,0,0,1,.246-.335,1.981,1.981,0,0,1,.379-.318,1.934,1.934,0,0,1,.5-.236,2.085,2.085,0,0,1,.584-.09,2.01,2.01,0,0,1,1.148.351,2.058,2.058,0,0,1,.425.4,1.848,1.848,0,0,1,.272.463,2.029,2.029,0,0,1,.131.458,1.817,1.817,0,0,1,.016.4,1.717,1.717,0,0,1-.046.3,1.266,1.266,0,0,1-.055.184l-.022.063.009-.066a1.885,1.885,0,0,0,.018-.191,1.69,1.69,0,0,0,0-.29,2.612,2.612,0,0,0-.07-.365,1.862,1.862,0,0,0-.167-.4,1.974,1.974,0,0,0-.283-.381,1.847,1.847,0,0,0-.636-.431l-.365.354.121-.435a1.939,1.939,0,0,0-.486-.054,2.02,2.02,0,0,0-.482.08,1.936,1.936,0,0,0-.417.191,2.079,2.079,0,0,0-.327.25,2.486,2.486,0,0,0-.228.267,1.837,1.837,0,0,0-.139.236,1.737,1.737,0,0,0-.073.161l-.025.058Z" transform="translate(-352.94 -69.613)" fill="#d7df23"/>
            </g>
            <g id="XMLID_246_" transform="translate(0 9.231)">
              <path id="XMLID_248_" d="M323.749,102.33,341.189,83.5a1.746,1.746,0,0,0,2.342,2.258l-18.872,17.479a.643.643,0,0,1-.909-.909Z" transform="translate(-323.577 -82.061)" fill="#d7df23"/>
              <path id="XMLID_247_" d="M348.6,84.841l.144-.652-.169.084-.32.473c-.035-.014-.067-.028-.1-.044l-.065-.513-.46.143a1.747,1.747,0,0,1-.495-1.219,1.728,1.728,0,0,1,.194-.782l.156-.168c.028-.03.06-.061.091-.09a1.673,1.673,0,1,1,2.274,2.455l-.118.111a1.734,1.734,0,0,1-.845.227A1.783,1.783,0,0,1,348.6,84.841Z" transform="translate(-329.034 -81.627)" fill="#d7df23"/>
            </g>
          </g>
        </g>
      </g>
      <g id="XMLID_5_" transform="translate(12.764 0.365)">
        <g id="XMLID_179_" transform="translate(0 33.22)">
          <path id="XMLID_242_" d="M281.175,117.306c-.179-.134-.363-.263-.548-.39H266.086a9.1,9.1,0,0,1-5.468-1.819l-.353.353a8.766,8.766,0,0,0,5.4,1.856Z" transform="translate(-252.54 -113.735)" fill="#8dc63f"/>
          <path id="XMLID_241_" d="M264.732,118.068H281.72c-.1-.084-.2-.164-.3-.244H265.477a9.1,9.1,0,0,1-5.641-1.954l-.389.387A8.594,8.594,0,0,0,264.732,118.068Z" transform="translate(-252.35 -113.914)" fill="#8dc63f"/>
          <path id="XMLID_240_" d="M274.008,125.364c-.409.171-.809.362-1.2.562l.272,2.287c.317.174.626.36.932.552v-3.4Z" transform="translate(-255.445 -116.113)" fill="#8dc63f"/>
          <path id="XMLID_239_" d="M282.946,119.61a2.246,2.246,0,0,1-.432.831,3.108,3.108,0,0,1,1.367.419c.271-.014,1.781-.144,2.081-1.25Z" transform="translate(-257.694 -114.78)" fill="#8dc63f"/>
          <path id="XMLID_238_" d="M260.134,114.019l.3-.3q-.233-.191-.453-.4h-.564A8.557,8.557,0,0,0,260.134,114.019Z" transform="translate(-252.343 -113.324)" fill="#8dc63f"/>
          <path id="XMLID_237_" d="M280.3,116.41q-.314-.2-.638-.392H266.577a9.091,9.091,0,0,1-5.224-1.645l-.315.313a8.768,8.768,0,0,0,5.228,1.723H280.3Z" transform="translate(-252.719 -113.567)" fill="#8dc63f"/>
          <path id="XMLID_236_" d="M259.24,114.6l.345-.343a9.11,9.11,0,0,1-.929-.934h-.572A8.814,8.814,0,0,0,259.24,114.6Z" transform="translate(-252.034 -113.324)" fill="#8dc63f"/>
          <path id="XMLID_235_" d="M276.371,124.5q-.793.227-1.56.529v3.75c.193.126.382.26.57.393Z" transform="translate(-255.909 -115.914)" fill="#8dc63f"/>
          <path id="XMLID_234_" d="M279.231,115.475c-.3-.161-.611-.312-.922-.458H267.25a9.1,9.1,0,0,1-5.052-1.524l-.434.433a8.759,8.759,0,0,0,4.981,1.549Z" transform="translate(-252.887 -113.363)" fill="#8dc63f"/>
          <path id="XMLID_233_" d="M277.306,122.784a1.032,1.032,0,0,0-.208-.572,2.168,2.168,0,0,0-1.287-.652,4.368,4.368,0,0,1-2.981,1.228,2.583,2.583,0,0,1-.27,1.189q.246.066.5.161A18.063,18.063,0,0,1,277.306,122.784Z" transform="translate(-255.388 -115.232)" fill="#8dc63f"/>
          <path id="XMLID_232_" d="M278.845,123.876a17.254,17.254,0,0,0-1.845.383l-1.057,4.988c.317.236.623.486.923.743Z" transform="translate(-256.172 -115.769)" fill="#8dc63f"/>
          <path id="XMLID_231_" d="M277.536,119.61a2.956,2.956,0,0,1-.448,1.2,2.613,2.613,0,0,1,1.136.542c.4-.021,2.6-.217,3.109-1.741Z" transform="translate(-256.437 -114.78)" fill="#8dc63f"/>
          <path id="XMLID_230_" d="M271.584,120.9a1.738,1.738,0,0,1,.912.918,1.541,1.541,0,0,1,.06.186c.549-.006,2.983-.178,3.364-2.392H271.8A2.6,2.6,0,0,1,271.584,120.9Z" transform="translate(-255.162 -114.78)" fill="#8dc63f"/>
          <path id="XMLID_229_" d="M267.088,122.505a1.573,1.573,0,0,1,.16.1c.486-.108,3.072-.786,2.894-3H266.53a9.222,9.222,0,0,1-.648,2.718A1.933,1.933,0,0,1,267.088,122.505Z" transform="translate(-253.841 -114.781)" fill="#8dc63f"/>
          <path id="XMLID_228_" d="M271.176,123.923a1.877,1.877,0,0,0,.183-1.5,1.4,1.4,0,0,0-.761-.745,4.548,4.548,0,0,1-2.566,1.685,2.13,2.13,0,0,1,.389.834A4.395,4.395,0,0,1,271.176,123.923Z" transform="translate(-254.339 -115.259)" fill="#8dc63f"/>
          <path id="XMLID_227_" d="M281.857,123.618a17.955,17.955,0,0,0-2.28.15l-2.072,6.4q.383.338.746.7l3.66-7.247Z" transform="translate(-256.533 -115.709)" fill="#8dc63f"/>
          <path id="XMLID_226_" d="M256.1,115.216l-2.945,2.061c.2.287.414.578.631.871l2.7-2.5C256.352,115.506,256.224,115.364,256.1,115.216Z" transform="translate(-250.893 -113.762)" fill="#8dc63f"/>
          <path id="XMLID_225_" d="M250.21,113.325c.128.219.262.446.4.677l1.3-.677Z" transform="translate(-250.21 -113.324)" fill="#8dc63f"/>
          <path id="XMLID_224_" d="M254.546,113.325h-1.729l-1.854.963q.127.207.259.417Z" transform="translate(-250.384 -113.324)" fill="#8dc63f"/>
          <path id="XMLID_223_" d="M287.123,120.206a3.051,3.051,0,0,1,1.258,1.252,3.548,3.548,0,0,0,2.037-.237,17.751,17.751,0,0,0-1.524-1.61h-1.514A1.631,1.631,0,0,1,287.123,120.206Z" transform="translate(-258.762 -114.78)" fill="#8dc63f"/>
          <path id="XMLID_222_" d="M294.666,135.941,296,134.193c-.018-.181-.042-.363-.065-.543l-2.29,2.291Z" transform="translate(-260.272 -118.033)" fill="#8dc63f"/>
          <path id="XMLID_221_" d="M293.356,131.558l-9.631,3.9h4.106l4.114-1.554,1.567-1.567C293.463,132.074,293.414,131.815,293.356,131.558Z" transform="translate(-257.975 -117.548)" fill="#8dc63f"/>
          <path id="XMLID_220_" d="M261.15,113.325h-.339c.061.052.121.105.184.156Z" transform="translate(-252.666 -113.324)" fill="#8dc63f"/>
          <path id="XMLID_219_" d="M257.352,113.325h-.632a8.64,8.64,0,0,0,1.577,1.907l.389-.39A9.128,9.128,0,0,1,257.352,113.325Z" transform="translate(-251.718 -113.324)" fill="#8dc63f"/>
          <path id="XMLID_218_" d="M264.155,119.486c.024-.158.041-.323.058-.489a9.267,9.267,0,0,1-5.394-2l-.012.011C259.413,117.747,261.422,119.864,264.155,119.486Z" transform="translate(-252.202 -114.176)" fill="#8dc63f"/>
          <path id="XMLID_217_" d="M276.406,114a17.937,17.937,0,0,0-4.87-.677h-6.567a8.766,8.766,0,0,0,3.384.677Z" transform="translate(-253.629 -113.324)" fill="#8dc63f"/>
          <path id="XMLID_216_" d="M277.791,114.641q-.394-.16-.8-.3h-9.124a9.091,9.091,0,0,1-4.178-1.014h-.808a8.761,8.761,0,0,0,4.626,1.316Z" transform="translate(-253.146 -113.324)" fill="#8dc63f"/>
          <path id="XMLID_215_" d="M262.6,127.051c-.208-.009-.416-.014-.625-.015v.675l.338.3C262.414,127.625,262.521,127.291,262.6,127.051Z" transform="translate(-252.936 -116.501)" fill="#8dc63f"/>
          <path id="XMLID_214_" d="M291.867,127.782l-10.644,6.561c.055.08.114.158.169.239h.852L292.7,130.35A17.7,17.7,0,0,0,291.867,127.782Z" transform="translate(-257.395 -116.674)" fill="#8dc63f"/>
          <path id="XMLID_213_" d="M263.85,120.486c.048-.186.092-.378.131-.578a5.042,5.042,0,0,1-.591.039,6.862,6.862,0,0,1-4.939-2.62l-.141.141A5.568,5.568,0,0,0,263.85,120.486Z" transform="translate(-252.087 -114.251)" fill="#8dc63f"/>
          <path id="XMLID_212_" d="M263.863,125.624a18.17,18.17,0,0,1,1.933.274,4.749,4.749,0,0,1,1.344-1.112,1.51,1.51,0,0,0-.683-1.072,1.732,1.732,0,0,0-1.209-.1A7.255,7.255,0,0,1,263.863,125.624Z" transform="translate(-253.373 -115.694)" fill="#8dc63f"/>
          <path id="XMLID_211_" d="M271.5,129.634l-3.361-.443c-.094.08-.189.159-.281.241l4.3.572Q271.826,129.813,271.5,129.634Z" transform="translate(-254.297 -117)" fill="#8dc63f"/>
          <path id="XMLID_210_" d="M262.63,122.8a7.3,7.3,0,0,0,.379-.721,6.987,6.987,0,0,1-5.893-3.506l-.437.438A8.346,8.346,0,0,0,262.63,122.8Z" transform="translate(-251.709 -114.54)" fill="#8dc63f"/>
          <path id="XMLID_209_" d="M263.358,121.577c.081-.2.158-.413.227-.639-.075,0-.154.011-.227.011a5.946,5.946,0,0,1-5.464-3.117l-.322.321A6.655,6.655,0,0,0,263.358,121.577Z" transform="translate(-251.916 -114.368)" fill="#8dc63f"/>
          <path id="XMLID_208_" d="M261.711,124.013a6.6,6.6,0,0,0,.539-.688,8.735,8.735,0,0,1-5.994-3.873c-.108.1-.217.2-.327.3A13,13,0,0,0,261.711,124.013Z" transform="translate(-251.535 -114.743)" fill="#8dc63f"/>
          <path id="XMLID_207_" d="M255.018,113.881c-.041-.065-.082-.131-.122-.2l-3.355,1.394c.137.213.277.431.424.648Z" transform="translate(-250.518 -113.407)" fill="#8dc63f"/>
          <path id="XMLID_206_" d="M286.361,120.724a2.907,2.907,0,0,1-1.544.693,2.687,2.687,0,0,1,.658.956,18.466,18.466,0,0,1,2.362.4A2.62,2.62,0,0,0,286.361,120.724Z" transform="translate(-258.227 -115.038)" fill="#8dc63f"/>
          <path id="XMLID_205_" d="M255.7,114.742c-.108-.143-.214-.285-.314-.433l-3.053,1.844q.213.315.436.636Z" transform="translate(-250.702 -113.552)" fill="#8dc63f"/>
          <path id="XMLID_204_" d="M257.133,122.84a32.029,32.029,0,0,0,3.162,1.922c.2,0,.4.008.592.015a4.115,4.115,0,0,0,.387-.34,13.11,13.11,0,0,1-5.781-4.287c-.119.105-.241.2-.363.3C255.753,121.246,256.423,122.046,257.133,122.84Z" transform="translate(-251.35 -114.905)" fill="#8dc63f"/>
          <path id="XMLID_203_" d="M279.765,132.067c.139.162.274.324.407.491l8.662-7.589a17.331,17.331,0,0,0-2.568-.786Z" transform="translate(-257.057 -115.84)" fill="#8dc63f"/>
          <path id="XMLID_202_" d="M282.584,123.63l-3.785,7.5q.264.272.518.554l6.355-7.706A17.682,17.682,0,0,0,282.584,123.63Z" transform="translate(-256.833 -115.712)" fill="#8dc63f"/>
          <path id="XMLID_201_" d="M295.527,136.258h.993c0-.419-.018-.83-.048-1.241Z" transform="translate(-260.709 -118.35)" fill="#8dc63f"/>
          <path id="XMLID_200_" d="M257.242,116.352c-.093-.085-.184-.173-.273-.261l-2.728,2.53c.089.12.181.24.273.359.363-.3.718-.617,1.053-.953Z" transform="translate(-251.144 -113.965)" fill="#8dc63f"/>
          <path id="XMLID_199_" d="M258.98,125q.425.448.867.887h.626C259.944,125.59,259.443,125.29,258.98,125Z" transform="translate(-252.242 -116.028)" fill="#8dc63f"/>
          <path id="XMLID_198_" d="M261.417,127.03h-.4c.132.124.266.247.4.37Z" transform="translate(-252.714 -116.499)" fill="#8dc63f"/>
          <path id="XMLID_197_" d="M267.565,127.931c-.2-.06-.409-.12-.617-.173a13.715,13.715,0,0,0-1.772,2.14c.051.038.1.078.154.115l.77-.77A19,19,0,0,1,267.565,127.931Z" transform="translate(-253.677 -116.668)" fill="#8dc63f"/>
          <path id="XMLID_196_" d="M289.473,122.419a4.169,4.169,0,0,1-.5-.03,3.277,3.277,0,0,1,.179.784,17.993,17.993,0,0,1,3.581,1.358,17.944,17.944,0,0,0-1.67-2.479A3.412,3.412,0,0,1,289.473,122.419Z" transform="translate(-259.191 -115.346)" fill="#8dc63f"/>
          <path id="XMLID_195_" d="M290.313,136.338h1.6l.974-.974Z" transform="translate(-259.501 -118.43)" fill="#8dc63f"/>
          <path id="XMLID_194_" d="M265.477,127.392a10.955,10.955,0,0,0-1.006,2.008c.09.071.181.14.272.208a13.751,13.751,0,0,1,1.654-2.028Q265.942,127.475,265.477,127.392Z" transform="translate(-253.514 -116.583)" fill="#8dc63f"/>
          <path id="XMLID_193_" d="M271.309,125.123a4.127,4.127,0,0,0-4.443,1.169q.887.2,1.74.476A18.2,18.2,0,0,1,271.309,125.123Z" transform="translate(-254.069 -116.007)" fill="#8dc63f"/>
          <path id="XMLID_192_" d="M271.868,126.308a17.321,17.321,0,0,0-1.72,1.06,18.218,18.218,0,0,1,1.949.877Z" transform="translate(-254.829 -116.332)" fill="#8dc63f"/>
          <path id="XMLID_191_" d="M264.93,127.279c-.258-.041-.519-.074-.781-.1a10.785,10.785,0,0,0-.486,1.676c.114.095.227.187.343.28A10.951,10.951,0,0,1,264.93,127.279Z" transform="translate(-253.327 -116.533)" fill="#8dc63f"/>
          <path id="XMLID_190_" d="M270.76,128.967q-.787-.366-1.612-.656c-.163.124-.325.247-.483.378Z" transform="translate(-254.486 -116.796)" fill="#8dc63f"/>
          <path id="XMLID_189_" d="M281.356,121.119a4.693,4.693,0,0,1-2.448.9,1.36,1.36,0,0,1,.2.6,18.291,18.291,0,0,1,3.073-.263c.517,0,1.03.027,1.539.069A2.477,2.477,0,0,0,281.356,121.119Z" transform="translate(-256.859 -115.129)" fill="#8dc63f"/>
          <path id="XMLID_188_" d="M263.6,127.12c-.151-.014-.3-.025-.455-.035a11.469,11.469,0,0,0-.351,1.186c.125.108.248.216.375.321A10.9,10.9,0,0,1,263.6,127.12Z" transform="translate(-253.125 -116.512)" fill="#8dc63f"/>
          <path id="XMLID_187_" d="M276.97,134.575c-.1-.118-.207-.237-.313-.351l-6.027-.3c.469.233.944.452,1.424.652Z" transform="translate(-254.941 -118.096)" fill="#8dc63f"/>
          <path id="XMLID_186_" d="M278.255,135.58c-.1-.124-.2-.25-.3-.37h-4.344q.889.319,1.806.552Z" transform="translate(-255.632 -118.394)" fill="#8dc63f"/>
          <path id="XMLID_185_" d="M279.414,136.11l-1.9.121a16.8,16.8,0,0,0,2.167.252C279.6,136.36,279.507,136.234,279.414,136.11Z" transform="translate(-256.537 -118.603)" fill="#8dc63f"/>
          <path id="XMLID_184_" d="M280.567,133.1c.1.135.207.273.307.41l10.709-6.6c-.08-.183-.161-.366-.247-.546a17.463,17.463,0,0,0-1.967-.974Z" transform="translate(-257.243 -116.12)" fill="#8dc63f"/>
          <path id="XMLID_183_" d="M275.829,133.607c-.108-.11-.215-.217-.326-.324l-6.954-.486q.432.255.871.493Z" transform="translate(-254.459 -117.835)" fill="#8dc63f"/>
          <path id="XMLID_182_" d="M273.857,131.757c-.068-.055-.138-.107-.207-.161l-6.974-1.064-.353.354Z" transform="translate(-253.943 -117.311)" fill="#8dc63f"/>
          <path id="XMLID_181_" d="M272.679,130.6l-5.3-.707c-.068.066-.137.129-.2.2l6.107.932C273.084,130.875,272.883,130.735,272.679,130.6Z" transform="translate(-254.141 -117.163)" fill="#8dc63f"/>
          <path id="XMLID_180_" d="M274.623,132.605c-.091-.082-.184-.162-.276-.243l-7.911-.914q.491.338,1,.653Z" transform="translate(-253.969 -117.523)" fill="#8dc63f"/>
        </g>
        <g id="XMLID_115_" transform="translate(38.852 33.22)">
          <path id="XMLID_178_" d="M310.118,117.306c.179-.134.363-.263.548-.39h14.541a9.1,9.1,0,0,0,5.468-1.819l.353.353a8.765,8.765,0,0,1-5.4,1.856Z" transform="translate(-302.941 -113.735)" fill="#8dc63f"/>
          <path id="XMLID_177_" d="M326.151,118.068H309.162c.1-.084.2-.164.3-.244h15.939a9.106,9.106,0,0,0,5.641-1.954l.39.387A8.6,8.6,0,0,1,326.151,118.068Z" transform="translate(-302.72 -113.914)" fill="#8dc63f"/>
          <path id="XMLID_176_" d="M323.229,125.364c.408.171.808.362,1.2.562l-.272,2.287c-.317.174-.625.36-.931.552Z" transform="translate(-305.979 -116.113)" fill="#8dc63f"/>
          <path id="XMLID_175_" d="M313.612,119.61a2.258,2.258,0,0,0,.431.831,3.1,3.1,0,0,0-1.366.419c-.272-.014-1.781-.144-2.081-1.25Z" transform="translate(-303.052 -114.78)" fill="#8dc63f"/>
          <path id="XMLID_174_" d="M337.159,114.019l-.3-.3c.156-.128.306-.26.453-.4h.565A8.9,8.9,0,0,1,337.159,114.019Z" transform="translate(-309.136 -113.324)" fill="#8dc63f"/>
          <path id="XMLID_173_" d="M311.492,116.41c.209-.135.423-.266.638-.392h13.084a9.1,9.1,0,0,0,5.225-1.645l.313.313a8.763,8.763,0,0,1-5.227,1.723H311.492Z" transform="translate(-303.259 -113.567)" fill="#8dc63f"/>
          <path id="XMLID_172_" d="M337.905,114.6l-.344-.343a9.192,9.192,0,0,0,.929-.934h.573A8.916,8.916,0,0,1,337.905,114.6Z" transform="translate(-309.299 -113.324)" fill="#8dc63f"/>
          <path id="XMLID_171_" d="M320.758,124.5q.793.227,1.56.529v3.75c-.193.126-.382.26-.57.393Z" transform="translate(-305.406 -115.914)" fill="#8dc63f"/>
          <path id="XMLID_170_" d="M313.1,115.475c.3-.161.61-.312.923-.458h11.059a9.105,9.105,0,0,0,5.052-1.524l.433.433a8.761,8.761,0,0,1-4.981,1.549Z" transform="translate(-303.632 -113.363)" fill="#8dc63f"/>
          <path id="XMLID_169_" d="M318.861,122.784a1.027,1.027,0,0,1,.208-.572,2.165,2.165,0,0,1,1.286-.652,4.37,4.37,0,0,0,2.982,1.228,2.584,2.584,0,0,0,.27,1.189c-.164.044-.333.1-.5.161A18.046,18.046,0,0,0,318.861,122.784Z" transform="translate(-304.966 -115.232)" fill="#8dc63f"/>
          <path id="XMLID_168_" d="M317.879,123.876a17.252,17.252,0,0,1,1.845.383l1.057,4.988c-.316.236-.623.486-.923.743Z" transform="translate(-304.739 -115.769)" fill="#8dc63f"/>
          <path id="XMLID_167_" d="M318.782,119.61a2.99,2.99,0,0,0,.448,1.2,2.614,2.614,0,0,0-1.136.542c-.4-.021-2.6-.217-3.109-1.741Z" transform="translate(-304.069 -114.78)" fill="#8dc63f"/>
          <path id="XMLID_166_" d="M324.708,120.9a1.74,1.74,0,0,0-.913.918,1.685,1.685,0,0,0-.059.186c-.549-.006-2.983-.178-3.364-2.392h4.118A2.579,2.579,0,0,0,324.708,120.9Z" transform="translate(-305.317 -114.78)" fill="#8dc63f"/>
          <path id="XMLID_165_" d="M329.222,122.505a1.5,1.5,0,0,0-.16.1c-.486-.108-3.071-.786-2.894-3h3.612a9.294,9.294,0,0,0,.648,2.718A1.932,1.932,0,0,0,329.222,122.505Z" transform="translate(-306.657 -114.781)" fill="#8dc63f"/>
          <path id="XMLID_164_" d="M325.393,123.923a1.877,1.877,0,0,1-.183-1.5,1.4,1.4,0,0,1,.761-.745,4.55,4.55,0,0,0,2.566,1.685,2.141,2.141,0,0,0-.389.834A4.4,4.4,0,0,0,325.393,123.923Z" transform="translate(-306.417 -115.259)" fill="#8dc63f"/>
          <path id="XMLID_163_" d="M314.414,123.618a17.956,17.956,0,0,1,2.28.15l2.072,6.4q-.382.338-.745.7l-3.66-7.247Z" transform="translate(-303.924 -115.709)" fill="#8dc63f"/>
          <path id="XMLID_162_" d="M340.492,115.216l2.946,2.061c-.2.287-.414.578-.63.871l-2.7-2.5C340.243,115.506,340.371,115.364,340.492,115.216Z" transform="translate(-309.89 -113.762)" fill="#8dc63f"/>
          <path id="XMLID_161_" d="M346.876,113.325c-.127.219-.262.446-.4.677l-1.3-.677Z" transform="translate(-311.063 -113.324)" fill="#8dc63f"/>
          <path id="XMLID_160_" d="M341.972,113.325h1.73l1.853.963q-.127.207-.259.417Z" transform="translate(-310.321 -113.324)" fill="#8dc63f"/>
          <path id="XMLID_159_" d="M309.483,120.206a3.056,3.056,0,0,0-1.258,1.252,3.546,3.546,0,0,1-2.036-.237,17.883,17.883,0,0,1,1.524-1.61h1.514A1.645,1.645,0,0,0,309.483,120.206Z" transform="translate(-302.031 -114.78)" fill="#8dc63f"/>
          <path id="XMLID_158_" d="M302.222,135.941l-1.332-1.748c.018-.181.042-.363.065-.543l2.291,2.291Z" transform="translate(-300.803 -118.033)" fill="#8dc63f"/>
          <path id="XMLID_157_" d="M301.292,131.558l9.631,3.9h-4.106L302.7,133.9l-1.567-1.567Q301.206,131.943,301.292,131.558Z" transform="translate(-300.86 -117.548)" fill="#8dc63f"/>
          <path id="XMLID_156_" d="M336.346,113.325h.34c-.061.052-.121.105-.184.156Z" transform="translate(-309.017 -113.324)" fill="#8dc63f"/>
          <path id="XMLID_155_" d="M339.654,113.325h.632a8.639,8.639,0,0,1-1.577,1.907l-.389-.39A9.052,9.052,0,0,0,339.654,113.325Z" transform="translate(-309.475 -113.324)" fill="#8dc63f"/>
          <path id="XMLID_154_" d="M331.813,119.486c-.023-.158-.042-.323-.058-.489a9.268,9.268,0,0,0,5.4-2l.011.011C336.556,117.747,334.546,119.864,331.813,119.486Z" transform="translate(-307.954 -114.176)" fill="#8dc63f"/>
          <path id="XMLID_153_" d="M317.745,114a17.933,17.933,0,0,1,4.87-.677h6.567A8.766,8.766,0,0,1,325.8,114Z" transform="translate(-304.708 -113.324)" fill="#8dc63f"/>
          <path id="XMLID_152_" d="M315.313,114.641q.393-.16.8-.3h9.124a9.091,9.091,0,0,0,4.178-1.014h.808a8.761,8.761,0,0,1-4.626,1.316Z" transform="translate(-304.145 -113.324)" fill="#8dc63f"/>
          <path id="XMLID_151_" d="M334.807,127.051c.208-.009.416-.014.626-.015v.675c-.112.1-.226.2-.339.3C335,127.625,334.89,127.291,334.807,127.051Z" transform="translate(-308.661 -116.501)" fill="#8dc63f"/>
          <path id="XMLID_150_" d="M302.27,127.782l10.644,6.561c-.055.08-.114.158-.169.239h-.852l-10.456-4.232A17.9,17.9,0,0,1,302.27,127.782Z" transform="translate(-300.93 -116.674)" fill="#8dc63f"/>
          <path id="XMLID_149_" d="M332.037,120.486c-.048-.186-.091-.378-.13-.578a5.033,5.033,0,0,0,.591.039,6.86,6.86,0,0,0,4.939-2.62l.141.141A5.569,5.569,0,0,1,332.037,120.486Z" transform="translate(-307.989 -114.251)" fill="#8dc63f"/>
          <path id="XMLID_148_" d="M332.746,125.624a18.17,18.17,0,0,0-1.932.274,4.772,4.772,0,0,0-1.344-1.112,1.507,1.507,0,0,1,.681-1.072,1.734,1.734,0,0,1,1.209-.1A7.307,7.307,0,0,0,332.746,125.624Z" transform="translate(-307.425 -115.694)" fill="#8dc63f"/>
          <path id="XMLID_147_" d="M324.808,129.634l3.362-.443c.093.08.188.159.281.241l-4.3.572Q324.478,129.813,324.808,129.634Z" transform="translate(-306.193 -117)" fill="#8dc63f"/>
          <path id="XMLID_146_" d="M333.06,122.8a7.454,7.454,0,0,1-.379-.721,6.985,6.985,0,0,0,5.893-3.506l.437.438A8.35,8.35,0,0,1,333.06,122.8Z" transform="translate(-308.168 -114.54)" fill="#8dc63f"/>
          <path id="XMLID_145_" d="M332.428,121.577c-.081-.2-.158-.413-.227-.639.075,0,.154.011.227.011a5.945,5.945,0,0,0,5.464-3.117l.323.321A6.659,6.659,0,0,1,332.428,121.577Z" transform="translate(-308.057 -114.368)" fill="#8dc63f"/>
          <path id="XMLID_144_" d="M333.983,124.013a6.31,6.31,0,0,1-.539-.688,8.738,8.738,0,0,0,5.993-3.873c.108.1.217.2.328.3A13.013,13.013,0,0,1,333.983,124.013Z" transform="translate(-308.345 -114.743)" fill="#8dc63f"/>
          <path id="XMLID_143_" d="M341.531,113.881c.042-.065.082-.131.122-.2l3.355,1.394c-.137.213-.277.431-.423.648Z" transform="translate(-310.219 -113.407)" fill="#8dc63f"/>
          <path id="XMLID_142_" d="M310.327,120.724a2.907,2.907,0,0,0,1.544.693,2.687,2.687,0,0,0-.659.956,18.469,18.469,0,0,0-2.362.4A2.622,2.622,0,0,1,310.327,120.724Z" transform="translate(-302.647 -115.038)" fill="#8dc63f"/>
          <path id="XMLID_141_" d="M340.881,114.742c.109-.143.214-.285.315-.433l3.053,1.844q-.213.315-.437.636Z" transform="translate(-310.068 -113.552)" fill="#8dc63f"/>
          <path id="XMLID_140_" d="M338.612,122.84a32.037,32.037,0,0,1-3.162,1.922c-.2,0-.4.008-.592.015a4.183,4.183,0,0,1-.388-.34,13.109,13.109,0,0,0,5.782-4.287c.118.105.241.2.363.3C339.991,121.246,339.323,122.046,338.612,122.84Z" transform="translate(-308.583 -114.905)" fill="#8dc63f"/>
          <path id="XMLID_139_" d="M315.1,132.067c-.138.162-.273.324-.407.491l-8.662-7.589a17.359,17.359,0,0,1,2.568-.786Z" transform="translate(-301.994 -115.84)" fill="#8dc63f"/>
          <path id="XMLID_138_" d="M312.943,123.63l3.785,7.5q-.264.272-.518.554l-6.356-7.706A17.708,17.708,0,0,1,312.943,123.63Z" transform="translate(-302.88 -115.712)" fill="#8dc63f"/>
          <path id="XMLID_137_" d="M301.771,136.258h-.994c0-.419.02-.83.048-1.241Z" transform="translate(-300.777 -118.35)" fill="#8dc63f"/>
          <path id="XMLID_136_" d="M339.451,116.352c.092-.085.184-.173.273-.261l2.728,2.53c-.089.12-.181.24-.273.359-.363-.3-.718-.617-1.053-.953Z" transform="translate(-309.737 -113.965)" fill="#8dc63f"/>
          <path id="XMLID_135_" d="M338.168,125q-.425.448-.867.887h-.626C337.2,125.59,337.706,125.29,338.168,125Z" transform="translate(-309.094 -116.028)" fill="#8dc63f"/>
          <path id="XMLID_134_" d="M336.062,127.03h.4c-.132.124-.266.247-.4.37Z" transform="translate(-308.952 -116.499)" fill="#8dc63f"/>
          <path id="XMLID_133_" d="M329.313,127.931c.205-.06.409-.12.618-.173a13.721,13.721,0,0,1,1.771,2.14c-.051.038-.1.078-.154.115l-.769-.77A19,19,0,0,0,329.313,127.931Z" transform="translate(-307.388 -116.668)" fill="#8dc63f"/>
          <path id="XMLID_132_" d="M306.992,122.419a4.145,4.145,0,0,0,.5-.03,3.275,3.275,0,0,0-.178.784,18.02,18.02,0,0,0-3.582,1.358,17.9,17.9,0,0,1,1.672-2.479A3.407,3.407,0,0,0,306.992,122.419Z" transform="translate(-301.461 -115.346)" fill="#8dc63f"/>
          <path id="XMLID_131_" d="M306.509,136.338h-1.6l-.973-.974Z" transform="translate(-301.508 -118.43)" fill="#8dc63f"/>
          <path id="XMLID_130_" d="M331.54,127.392a10.943,10.943,0,0,1,1.007,2.008c-.091.071-.182.14-.272.208a13.7,13.7,0,0,0-1.656-2.028Q331.077,127.475,331.54,127.392Z" transform="translate(-307.691 -116.583)" fill="#8dc63f"/>
          <path id="XMLID_129_" d="M324.949,125.123a4.129,4.129,0,0,1,4.444,1.169q-.889.2-1.74.476A18.21,18.21,0,0,0,324.949,125.123Z" transform="translate(-306.377 -116.007)" fill="#8dc63f"/>
          <path id="XMLID_128_" d="M325.143,126.308a17.234,17.234,0,0,1,1.72,1.06,18.224,18.224,0,0,0-1.949.877Z" transform="translate(-306.369 -116.332)" fill="#8dc63f"/>
          <path id="XMLID_127_" d="M332.287,127.279c.258-.041.519-.074.781-.1a10.75,10.75,0,0,1,.487,1.676c-.114.095-.227.187-.343.28A10.953,10.953,0,0,0,332.287,127.279Z" transform="translate(-308.077 -116.533)" fill="#8dc63f"/>
          <path id="XMLID_126_" d="M326.208,128.967a17.2,17.2,0,0,1,1.612-.656c.162.124.324.247.483.378Z" transform="translate(-306.669 -116.796)" fill="#8dc63f"/>
          <path id="XMLID_125_" d="M314.792,121.119a4.7,4.7,0,0,0,2.448.9,1.35,1.35,0,0,0-.2.6,18.291,18.291,0,0,0-3.073-.263c-.517,0-1.03.027-1.54.069A2.478,2.478,0,0,1,314.792,121.119Z" transform="translate(-303.476 -115.129)" fill="#8dc63f"/>
          <path id="XMLID_124_" d="M333.758,127.12c.151-.014.3-.025.455-.035a11.488,11.488,0,0,1,.351,1.186c-.125.108-.248.216-.375.321A10.783,10.783,0,0,0,333.758,127.12Z" transform="translate(-308.418 -116.512)" fill="#8dc63f"/>
          <path id="XMLID_123_" d="M318.717,134.575c.1-.118.207-.237.313-.351l6.027-.3c-.469.233-.943.452-1.424.652Z" transform="translate(-304.933 -118.096)" fill="#8dc63f"/>
          <path id="XMLID_122_" d="M317.942,135.58c.1-.124.2-.25.3-.37h4.344q-.889.319-1.806.552Z" transform="translate(-304.754 -118.394)" fill="#8dc63f"/>
          <path id="XMLID_121_" d="M317.53,136.11l1.9.121a16.8,16.8,0,0,1-2.167.252C317.348,136.36,317.437,136.234,317.53,136.11Z" transform="translate(-304.595 -118.603)" fill="#8dc63f"/>
          <path id="XMLID_120_" d="M313.709,133.1c-.1.135-.206.273-.306.41l-10.709-6.6c.079-.183.162-.366.247-.546a17.458,17.458,0,0,1,1.967-.974Z" transform="translate(-301.221 -116.12)" fill="#8dc63f"/>
          <path id="XMLID_119_" d="M319.574,133.607c.108-.11.215-.217.326-.324l6.953-.486c-.287.17-.578.334-.871.493Z" transform="translate(-305.132 -117.835)" fill="#8dc63f"/>
          <path id="XMLID_118_" d="M321.471,131.757c.067-.055.138-.107.207-.161l6.973-1.064.354.354Z" transform="translate(-305.571 -117.311)" fill="#8dc63f"/>
          <path id="XMLID_117_" d="M323.079,130.6l5.3-.707c.067.066.136.129.2.2l-6.107.932C322.672,130.875,322.873,130.735,323.079,130.6Z" transform="translate(-305.804 -117.163)" fill="#8dc63f"/>
          <path id="XMLID_116_" d="M320.507,132.605c.091-.082.184-.162.276-.243l7.911-.914q-.491.338-1,.653Z" transform="translate(-305.348 -117.523)" fill="#8dc63f"/>
        </g>
        <g id="XMLID_6_" transform="translate(22.974)">
          <path id="XMLID_114_" d="M308.889,106.795a1.917,1.917,0,0,1,1.088-.612c-.462-.774-1.618-.522-1.922-.439a1.163,1.163,0,0,1-.711.674,1.75,1.75,0,0,1,.366.6A1.773,1.773,0,0,1,308.889,106.795Z" transform="translate(-286.42 -78.323)" fill="#d7df23"/>
          <path id="XMLID_113_" d="M309.572,108.986s.008.009.013.012c.08-.354.153-1-.285-1.289a1.321,1.321,0,0,0-1.355.09,3.335,3.335,0,0,1,.056.866A2.421,2.421,0,0,1,309.572,108.986Z" transform="translate(-286.56 -78.766)" fill="#d7df23"/>
          <path id="XMLID_112_" d="M313.356,101.478a1.416,1.416,0,0,1-.184-.065,1.98,1.98,0,0,1-.919-1.236c-.045,0-.09.011-.134.011h0c-1,.741-.731,1.511-.615,1.748a1.722,1.722,0,0,1,1.433.555,1.232,1.232,0,0,1,.581-.3A1.887,1.887,0,0,1,313.356,101.478Z" transform="translate(-287.356 -77.058)" fill="#d7df23"/>
          <path id="XMLID_111_" d="M310.456,102.963a1.87,1.87,0,0,1,.045.447,1.036,1.036,0,0,1,.423.287,1.249,1.249,0,0,1,.241.42,3.7,3.7,0,0,1,1.159-.1,1.5,1.5,0,0,1,.175-.6C312.277,102.8,311.024,102.868,310.456,102.963Z" transform="translate(-287.141 -77.689)" fill="#d7df23"/>
          <path id="XMLID_110_" d="M314.4,93.4a4.374,4.374,0,0,1-.629.058,2.215,2.215,0,0,0,.081,1.527,1.478,1.478,0,0,0,.888.683c.088-.241.186-.471.281-.675Q314.737,94.189,314.4,93.4Z" transform="translate(-287.887 -75.488)" fill="#d7df23"/>
          <path id="XMLID_109_" d="M314.428,98.757a2.416,2.416,0,0,1-.531.108,1.9,1.9,0,0,1-.949.908,1.638,1.638,0,0,0,.736,1.009,1.321,1.321,0,0,0,1.118-.068,2.917,2.917,0,0,1-.08-1.607A1.106,1.106,0,0,1,314.428,98.757Z" transform="translate(-287.718 -76.729)" fill="#d7df23"/>
          <path id="XMLID_108_" d="M305.335,100.663a2.482,2.482,0,0,0,.917-1.349,2.194,2.194,0,0,0-.3-1.579,4.116,4.116,0,0,1-1.361,1.361,2.517,2.517,0,0,1-.076.389A2.79,2.79,0,0,1,305.335,100.663Z" transform="translate(-285.764 -76.492)" fill="#d7df23"/>
          <path id="XMLID_107_" d="M311.092,100a2.09,2.09,0,0,1-.627-.315,1.213,1.213,0,0,1-.143.151,1.525,1.525,0,0,1-1.023.353c-.048,0-.091,0-.131,0a1.583,1.583,0,0,1-.3.671,2.251,2.251,0,0,1,1.108,1.037,5.426,5.426,0,0,1,.589-.066A1.634,1.634,0,0,1,311.092,100Z" transform="translate(-286.773 -76.945)" fill="#d7df23"/>
          <path id="XMLID_106_" d="M308.417,99.663a1.23,1.23,0,0,0-.513-1.352,2.494,2.494,0,0,1-.754.3,2.225,2.225,0,0,1-.006.915,2.292,2.292,0,0,1-.2.554,2.377,2.377,0,0,1,.377.721A1.241,1.241,0,0,0,308.417,99.663Z" transform="translate(-286.327 -76.626)" fill="#d7df23"/>
          <path id="XMLID_105_" d="M312.827,95.429a1.951,1.951,0,0,1-.215-.8,2.952,2.952,0,0,1-1.079.239,1.775,1.775,0,0,1-.311-.028,2.251,2.251,0,0,1-.7.542,2.039,2.039,0,0,0,1.136.812,1.988,1.988,0,0,0,1.507-.342A1.657,1.657,0,0,1,312.827,95.429Z" transform="translate(-287.157 -75.774)" fill="#d7df23"/>
          <path id="XMLID_104_" d="M306.212,103.118a1.784,1.784,0,0,0,.539-1.011,1.591,1.591,0,0,0-.3-1.08,3.12,3.12,0,0,1-.761.755c0,.027.01.051.013.08a2.106,2.106,0,0,1-.058.794A1.57,1.57,0,0,1,306.212,103.118Z" transform="translate(-286.026 -77.255)" fill="#d7df23"/>
          <path id="XMLID_103_" d="M306.835,105.669c.624-.082.913-.564.856-1.438-.025-.406-.453-.6-.691-.682a2.382,2.382,0,0,1-.378.447,2.207,2.207,0,0,1,.214.8,1.567,1.567,0,0,1-.133.811A.884.884,0,0,1,306.835,105.669Z" transform="translate(-286.253 -77.839)" fill="#d7df23"/>
          <path id="XMLID_102_" d="M311.774,90.795a3.65,3.65,0,0,1-.141.456,1.409,1.409,0,0,0,.546.967,2.151,2.151,0,0,0,1.61.258c-.249-.569-.516-1.132-.8-1.685a3.566,3.566,0,0,1-.609.054A4,4,0,0,1,311.774,90.795Z" transform="translate(-287.414 -74.884)" fill="#d7df23"/>
          <path id="XMLID_101_" d="M303.684,97.9c-.437.685-.736,1.2-.884,1.471q.237.5.468,1.016A2.323,2.323,0,0,0,303.684,97.9Z" transform="translate(-285.367 -76.53)" fill="#d7df23"/>
          <path id="XMLID_100_" d="M315.648,99.462a2.09,2.09,0,0,0,.214,1.532.9.9,0,0,0,.47.339,2.559,2.559,0,0,1,.36-.359q-.118-.649-.263-1.291A2.867,2.867,0,0,1,315.648,99.462Z" transform="translate(-288.334 -76.892)" fill="#d7df23"/>
          <path id="XMLID_99_" d="M316.948,101.937a1.786,1.786,0,0,0-.476.746,1.669,1.669,0,0,0,.069,1.123,4.078,4.078,0,0,1,.608-.476C317.094,102.864,317.025,102.4,316.948,101.937Z" transform="translate(-288.519 -77.466)" fill="#d7df23"/>
          <path id="XMLID_98_" d="M306.474,81.79v7.965c.45-.542.938-1.094,1.458-1.645l-1.283-6.361C306.591,81.764,306.532,81.776,306.474,81.79Z" transform="translate(-286.219 -72.789)" fill="#d7df23"/>
          <path id="XMLID_97_" d="M307.123,108.883c.267-1.811-.584-2.209-.784-2.275a1.9,1.9,0,0,1-.533.477q.237.713.449,1.434A2.369,2.369,0,0,1,307.123,108.883Z" transform="translate(-286.064 -78.548)" fill="#d7df23"/>
          <path id="XMLID_96_" d="M312.53,89.92c-.28-.524-.572-1.041-.883-1.55q-.663.572-1.275,1.172A3.743,3.743,0,0,0,312.53,89.92Z" transform="translate(-287.122 -74.323)" fill="#d7df23"/>
          <path id="XMLID_95_" d="M315.2,97.879c.121.384.576.576,1.049.666q-.3-1.245-.714-2.456A3.114,3.114,0,0,0,315.2,97.879Z" transform="translate(-288.229 -76.111)" fill="#d7df23"/>
          <path id="XMLID_94_" d="M315.365,103.609c-.063.006-.129.014-.189.014a1.119,1.119,0,0,1-1.014-.433.952.952,0,0,0-.84.95,1.828,1.828,0,0,1,1.1.686,2.506,2.506,0,0,1,.957-.192,2.871,2.871,0,0,1,.2-.27A2.2,2.2,0,0,1,315.365,103.609Z" transform="translate(-287.805 -77.756)" fill="#d7df23"/>
          <path id="XMLID_93_" d="M304.378,91.881c.38-.529.8-1.094,1.272-1.677V81.9c-.143.028-.282.052-.422.077Z" transform="translate(-285.733 -72.824)" fill="#d7df23"/>
          <path id="XMLID_92_" d="M306.091,104.829a1.462,1.462,0,0,0-.743-1.265,3.294,3.294,0,0,1-.486.8q.322.838.615,1.688A1.275,1.275,0,0,0,306.091,104.829Z" transform="translate(-285.845 -77.843)" fill="#d7df23"/>
          <path id="XMLID_91_" d="M301.665,93.908l-.028,0c.12.231.239.464.355.7.31-.526.768-1.265,1.365-2.131l.894-10.4c-.174.024-.345.048-.515.065Z" transform="translate(-285.098 -72.864)" fill="#d7df23"/>
          <path id="XMLID_90_" d="M304.89,101.774a2.236,2.236,0,0,0-.714-1.31,2.771,2.771,0,0,1-.577.842q.432.975.827,1.972A2.122,2.122,0,0,0,304.89,101.774Z" transform="translate(-285.552 -77.124)" fill="#d7df23"/>
          <path id="XMLID_89_" d="M309.718,98.154a2.186,2.186,0,0,1-1.006-.269,1.8,1.8,0,0,1-.136.12,1.556,1.556,0,0,1,.567,1.427,1.24,1.24,0,0,0,.887-.264A1.449,1.449,0,0,0,310.4,98a1.5,1.5,0,0,1-.318.11A1.607,1.607,0,0,1,309.718,98.154Z" transform="translate(-286.705 -76.527)" fill="#d7df23"/>
          <path id="XMLID_88_" d="M310.276,94.433c-.035-.015-.07-.028-.1-.044a1.868,1.868,0,0,1-.881-1.082,2.661,2.661,0,0,1-.746.123,1.951,1.951,0,0,1-.053.441,2.366,2.366,0,0,1-.492.95A2.17,2.17,0,0,0,310.276,94.433Z" transform="translate(-286.572 -75.466)" fill="#d7df23"/>
          <path id="XMLID_87_" d="M309.052,97.136a1.68,1.68,0,0,0,1.065.161,1.431,1.431,0,0,0,.832-.6,2.507,2.507,0,0,1-1.088-.915,2.547,2.547,0,0,1-.3.068A2.758,2.758,0,0,1,309.052,97.136Z" transform="translate(-286.816 -76.04)" fill="#d7df23"/>
          <path id="XMLID_86_" d="M311.889,108.214a1.629,1.629,0,0,1,1.188.711,2.208,2.208,0,0,1,.307-.132,2.4,2.4,0,0,1,.279-1.033A1.485,1.485,0,0,0,311.889,108.214Z" transform="translate(-287.473 -78.781)" fill="#d7df23"/>
          <path id="XMLID_85_" d="M313.7,106.8a1.683,1.683,0,0,1,.574.187,1.746,1.746,0,0,1,.777-.524,2.623,2.623,0,0,1,.1-.618,2.777,2.777,0,0,1,.124-.332A1.653,1.653,0,0,0,313.7,106.8Z" transform="translate(-287.893 -78.295)" fill="#d7df23"/>
          <path id="XMLID_84_" d="M303.065,82.192c-.281.019-.559.033-.828.033l-.011,0-1.982,9.715q.423.756.836,1.541Z" transform="translate(-284.775 -72.891)" fill="#d7df23"/>
          <path id="XMLID_83_" d="M301.523,82.215c-.174-.006-.344-.015-.513-.028l-2.318,7.7q.471.781.94,1.6Z" transform="translate(-284.416 -72.89)" fill="#d7df23"/>
          <path id="XMLID_82_" d="M307.858,111.171a1.814,1.814,0,0,0-1.328-1.59c.151.543.294,1.091.421,1.637A4.879,4.879,0,0,1,307.858,111.171Z" transform="translate(-286.232 -79.237)" fill="#d7df23"/>
          <path id="XMLID_81_" d="M309.372,109.7a2.118,2.118,0,0,0-1.407-.255c-.014.11-.033.225-.055.345a2.335,2.335,0,0,1,.607,1.376c.112.015.227.038.339.065a3.078,3.078,0,0,1,1.022-.77A1.292,1.292,0,0,0,309.372,109.7Z" transform="translate(-286.551 -79.199)" fill="#d7df23"/>
          <path id="XMLID_80_" d="M300.534,98.214q-.537-1.072-1.1-2.094l3.464,16.42c.217-.227.442-.446.667-.662Z" transform="translate(-284.587 -76.118)" fill="#d7df23"/>
          <path id="XMLID_79_" d="M298.007,113.958c.135-.236.273-.469.417-.7l-5.706-27.693q-.5-.706-.969-1.325l2.589,11.591-.121.027c.153.3.3.614.437.937a15.375,15.375,0,0,1,1.192,5.464l.045-.008Z" transform="translate(-282.807 -73.366)" fill="#d7df23"/>
          <path id="XMLID_78_" d="M309.6,111.7a2.279,2.279,0,0,1,.676.4q.862-.482,1.771-.882A1.978,1.978,0,0,0,309.6,111.7Z" transform="translate(-286.944 -79.558)" fill="#d7df23"/>
          <path id="XMLID_77_" d="M292.433,115.925c.4.372.774.762,1.141,1.165a24.82,24.82,0,0,0,.87-2.815A4.5,4.5,0,0,0,292.433,115.925Z" transform="translate(-282.966 -80.324)" fill="#d7df23"/>
          <path id="XMLID_76_" d="M308.369,87.778q.629-.647,1.324-1.275l-1.249-3.218L307.221,81.6l-.091.024Z" transform="translate(-286.371 -72.755)" fill="#d7df23"/>
          <path id="XMLID_75_" d="M294.086,109.022a13.811,13.811,0,0,0-5.576,3.333c.283.183.559.375.832.57a12.159,12.159,0,0,1,4.673-2.7C294.054,109.822,294.077,109.418,294.086,109.022Z" transform="translate(-282.057 -79.107)" fill="#d7df23"/>
          <path id="XMLID_74_" d="M312.455,109.373a1.671,1.671,0,0,0-1.9-.459,2.911,2.911,0,0,1-.111.635,1.692,1.692,0,0,1,.336.653,2.06,2.06,0,0,1,.937-.038A2.694,2.694,0,0,1,312.455,109.373Z" transform="translate(-287.139 -79.056)" fill="#d7df23"/>
          <path id="XMLID_73_" d="M308.4,104.069a.974.974,0,0,1,.042.216,2.841,2.841,0,0,1-.033.675,2.138,2.138,0,0,1,1.881.362,1.051,1.051,0,0,0-.1-1.178C309.8,103.7,308.877,103.9,308.4,104.069Z" transform="translate(-286.664 -77.914)" fill="#d7df23"/>
          <path id="XMLID_72_" d="M313.1,98.473a1.18,1.18,0,0,1-.5-.2,1.608,1.608,0,0,1-.588-1.139,1.746,1.746,0,0,1-.227-.03,2.109,2.109,0,0,1-.482.529l.029,0a2.34,2.34,0,0,1-.157,1.166,1.5,1.5,0,0,0,1.069.321A1.335,1.335,0,0,0,313.1,98.473Z" transform="translate(-287.308 -76.347)" fill="#d7df23"/>
          <path id="XMLID_71_" d="M308.6,92.379a2.069,2.069,0,0,0,2.079-1.781,4.724,4.724,0,0,1-1.025-.38c-.463.465-.9.937-1.314,1.4A2.452,2.452,0,0,1,308.6,92.379Z" transform="translate(-286.651 -74.751)" fill="#d7df23"/>
          <path id="XMLID_70_" d="M308.255,101.544a1.807,1.807,0,0,1-.776.332,1.67,1.67,0,0,1,0,.395,1.837,1.837,0,0,1-.148.513,1.5,1.5,0,0,1,.662.444,3.34,3.34,0,0,1,1.45-.216A1.711,1.711,0,0,0,308.255,101.544Z" transform="translate(-286.417 -77.375)" fill="#d7df23"/>
          <path id="XMLID_69_" d="M308.644,95.845c-.021,0-.042,0-.062,0a3.28,3.28,0,0,1-1.152-.222,3.932,3.932,0,0,1-.737.56,1.726,1.726,0,0,1-.014.356,1.975,1.975,0,0,1-.083.33,3.36,3.36,0,0,1,.39.791A2.064,2.064,0,0,0,308.644,95.845Z" transform="translate(-286.247 -76.004)" fill="#d7df23"/>
          <path id="XMLID_68_" d="M310.089,92.881a1.564,1.564,0,0,0,.722.905,2,2,0,0,0,1.7-.126,3.366,3.366,0,0,1,.085-.542,1.958,1.958,0,0,1-.979-.35,1.655,1.655,0,0,1-.572-.765A2.276,2.276,0,0,1,310.089,92.881Z" transform="translate(-287.056 -75.165)" fill="#d7df23"/>
          <path id="XMLID_67_" d="M312.707,96.989a1.263,1.263,0,0,0,.442.872,1.285,1.285,0,0,0,1.121.047,2.814,2.814,0,0,1,.144-1.2,2.1,2.1,0,0,1-.456-.206A2.734,2.734,0,0,1,312.707,96.989Z" transform="translate(-287.663 -76.206)" fill="#d7df23"/>
          <path id="XMLID_66_" d="M305.173,80.35c.31-.052.631-.121.955-.2l-.755-1.039Z" transform="translate(-285.917 -72.177)" fill="#d7df23"/>
          <path id="XMLID_65_" d="M310.722,106.761a1.446,1.446,0,0,0-.915.42c.036.019.073.039.109.063a1.118,1.118,0,0,1,.486.851,2.933,2.933,0,0,1,.576-.094,2.463,2.463,0,0,1,.839-.723A1.507,1.507,0,0,0,310.722,106.761Z" transform="translate(-286.991 -78.583)" fill="#d7df23"/>
          <path id="XMLID_64_" d="M315.317,101.719a.285.285,0,0,1-.018-.03,2.075,2.075,0,0,1-.842.207c-.02,0-.039-.006-.058-.008a1.245,1.245,0,0,0,.341.817,1.083,1.083,0,0,0,.873.219,1.827,1.827,0,0,1,.072-.4,1.974,1.974,0,0,1,.174-.387A1.25,1.25,0,0,1,315.317,101.719Z" transform="translate(-288.055 -77.408)" fill="#d7df23"/>
          <path id="XMLID_63_" d="M313.617,105.358a2.275,2.275,0,0,0-2.223-.473,1.694,1.694,0,0,1-.241.941,1.572,1.572,0,0,1,.075.148,2.021,2.021,0,0,1,1.228.7l-.025.022a1.691,1.691,0,0,1,.337-.066A2.079,2.079,0,0,1,313.617,105.358Z" transform="translate(-287.303 -78.126)" fill="#d7df23"/>
          <path id="XMLID_62_" d="M307.724,93.582a1.778,1.778,0,0,0-.144-1.176c-.543.63-1.038,1.252-1.481,1.842a2.339,2.339,0,0,1,.425.827A2.725,2.725,0,0,0,307.724,93.582Z" transform="translate(-286.132 -75.258)" fill="#d7df23"/>
          <path id="XMLID_61_" d="M305.8,96.387a1.649,1.649,0,0,0-.341-1.214c-.467.633-.874,1.225-1.212,1.741a3.323,3.323,0,0,1,.289,1.173A2.9,2.9,0,0,0,305.8,96.387Z" transform="translate(-285.703 -75.899)" fill="#d7df23"/>
          <path id="XMLID_60_" d="M295.425,77.864q.334.217.708.42l-.807-3.593-.651.894Z" transform="translate(-283.485 -71.154)" fill="#d7df23"/>
          <path id="XMLID_59_" d="M290.533,99.6c-.087-.167-.177-.33-.27-.489-4.533.526-9.06,5.251-10.142,6.449,0,.171-.011.342-.011.513v.353C281.386,104.986,286.087,100.03,290.533,99.6Z" transform="translate(-280.111 -76.81)" fill="#d7df23"/>
          <path id="XMLID_58_" d="M295.47,117c-.171.524-.361,1.052-.571,1.587q.413.5.8,1.028Z" transform="translate(-283.537 -80.956)" fill="#d7df23"/>
          <path id="XMLID_57_" d="M294.28,113.532c.056-.254.107-.5.153-.755a6.082,6.082,0,0,0-3.1,2.051c.2.17.4.346.594.524A4.919,4.919,0,0,1,294.28,113.532Z" transform="translate(-282.71 -79.977)" fill="#d7df23"/>
          <path id="XMLID_56_" d="M296.778,111.981c-.057.395-.123.789-.205,1.19l.754,7.209c.105.181.211.365.31.549C297.5,118.916,297.165,114.52,296.778,111.981Z" transform="translate(-283.925 -79.793)" fill="#d7df23"/>
          <path id="XMLID_55_" d="M294.185,112.006q.077-.473.132-.937a11.909,11.909,0,0,0-4.35,2.533c.267.2.525.4.784.614A6.49,6.49,0,0,1,294.185,112.006Z" transform="translate(-282.395 -79.581)" fill="#d7df23"/>
          <path id="XMLID_54_" d="M294.291,87.8q-.328-.484-.648-.94l5.48,26.6c.128-.194.256-.384.39-.575Z" transform="translate(-283.246 -73.972)" fill="#d7df23"/>
          <path id="XMLID_53_" d="M292.014,102.916c-.043-.144-.091-.287-.138-.43a18.416,18.416,0,0,0-9.8,6c.257.084.515.168.768.261A17.3,17.3,0,0,1,292.014,102.916Z" transform="translate(-280.566 -77.593)" fill="#d7df23"/>
          <path id="XMLID_52_" d="M296.095,90.52q-.482-.761-.956-1.474l4.989,23.974q.294-.4.6-.781Z" transform="translate(-283.593 -74.479)" fill="#d7df23"/>
          <path id="XMLID_51_" d="M292.6,104.144c-.049-.227-.106-.45-.166-.674A17,17,0,0,0,283.5,109.1c.3.117.592.233.882.362A14.922,14.922,0,0,1,292.6,104.144Z" transform="translate(-280.897 -77.821)" fill="#d7df23"/>
          <path id="XMLID_50_" d="M281.135,107.956c.127.036.256.066.381.105a18.8,18.8,0,0,1,10.037-6.208c-.085-.239-.177-.477-.275-.711C286.174,102.019,282.195,106.62,281.135,107.956Z" transform="translate(-280.348 -77.282)" fill="#d7df23"/>
          <path id="XMLID_49_" d="M293.567,106.673c-.013-.154-.025-.307-.043-.461-4.718,1.121-6.571,3.758-7.044,4.58.167.088.333.177.5.27C287.733,110.154,290.255,107.4,293.567,106.673Z" transform="translate(-281.586 -78.456)" fill="#d7df23"/>
          <path id="XMLID_48_" d="M293.865,108.258c0-.337-.012-.671-.031-1-3.095.705-5.536,3.3-6.315,4.218.158.093.311.194.466.29A14.205,14.205,0,0,1,293.865,108.258Z" transform="translate(-281.827 -78.698)" fill="#d7df23"/>
          <path id="XMLID_47_" d="M293.15,105.542c-.036-.257-.078-.512-.126-.762a14.544,14.544,0,0,0-7.967,5.137c.267.123.532.244.794.38C286.343,109.413,288.222,106.7,293.15,105.542Z" transform="translate(-281.257 -78.124)" fill="#d7df23"/>
          <path id="XMLID_46_" d="M296.206,114.854c-.067.263-.141.527-.217.792l.343,4.005c.155.231.3.468.45.7Z" transform="translate(-283.79 -80.458)" fill="#d7df23"/>
          <path id="XMLID_45_" d="M317.217,106.531q-.028-1.148-.147-2.286a2.407,2.407,0,0,0-.914,3.168A3.146,3.146,0,0,1,317.217,106.531Z" transform="translate(-288.402 -78)" fill="#d7df23"/>
          <path id="XMLID_44_" d="M298.331,94.186c-.42-.734-.842-1.447-1.265-2.132l4.385,20.547c.2-.237.408-.468.618-.7Z" transform="translate(-284.039 -75.176)" fill="#d7df23"/>
          <path id="XMLID_43_" d="M310.592,87.09c.124-.11.25-.217.378-.326-.224-.335-.452-.666-.69-.993l-.429-.589Z" transform="translate(-287.001 -73.584)" fill="#d7df23"/>
          <path id="XMLID_42_" d="M299.768,78.231c.161.032.325.058.491.082l-.481-6.787-1.046-1.439-.473.652Z" transform="translate(-284.315 -70.087)" fill="#d7df23"/>
          <path id="XMLID_41_" d="M297.052,109.763c-.012.206-.031.416-.049.625l.025-.006c.535,2.5,1.008,9.4,1.1,10.817.065.137.136.267.2.4.2-.433.412-.854.637-1.269Z" transform="translate(-284.024 -79.279)" fill="#d7df23"/>
          <path id="XMLID_40_" d="M315.763,109.6c.473-.147.951-.282,1.438-.4v-1.143c0-.115-.005-.233-.008-.348A3.545,3.545,0,0,0,315.763,109.6Z" transform="translate(-288.37 -78.804)" fill="#d7df23"/>
          <path id="XMLID_39_" d="M290.9,100.6c-.066-.145-.133-.29-.2-.431-4.7.367-9.938,6.263-10.585,7.014v.333c.146.036.289.081.433.118C281.477,106.438,285.572,101.558,290.9,100.6Z" transform="translate(-280.111 -77.055)" fill="#d7df23"/>
          <path id="XMLID_38_" d="M315.2,107.216a1.58,1.58,0,0,0-.92,1.4,2.569,2.569,0,0,1,1.108.084c.051-.1.108-.194.171-.291A3.212,3.212,0,0,1,315.2,107.216Z" transform="translate(-288.027 -78.689)" fill="#d7df23"/>
          <path id="XMLID_37_" d="M304.41,107.2l1.3,6.351c.078-.066.153-.134.231-.2A34.834,34.834,0,0,0,304.41,107.2Z" transform="translate(-285.74 -78.686)" fill="#d7df23"/>
          <path id="XMLID_36_" d="M303.008,103.566c-.407-1.026-.849-2.033-1.314-3.02l2.68,12.082c.134-.124.275-.241.413-.362Z" transform="translate(-285.111 -77.144)" fill="#d7df23"/>
          <path id="XMLID_35_" d="M314.614,110.136a5.141,5.141,0,0,1,.221-.6,1.991,1.991,0,0,0-2.29.877,2.835,2.835,0,0,1,.516.243l-.052.085C313.532,110.512,314.07,110.317,314.614,110.136Z" transform="translate(-287.625 -79.206)" fill="#d7df23"/>
          <path id="XMLID_34_" d="M307.173,112.131c.122.546.231,1.1.323,1.645a21.359,21.359,0,0,1,1.906-1.245A3.214,3.214,0,0,0,307.173,112.131Z" transform="translate(-286.381 -79.818)" fill="#d7df23"/>
          <path id="XMLID_33_" d="M288.907,90.654c.364.3.731.636,1.095.993l-2.085-6.663-.393.54Z" transform="translate(-281.829 -73.538)" fill="#d7df23"/>
          <path id="XMLID_32_" d="M294.97,85.659l2.8-4.031c-.253-.072-.5-.153-.738-.237l.008.009-3.183,2.681C294.217,84.577,294.589,85.1,294.97,85.659Z" transform="translate(-283.296 -72.706)" fill="#d7df23"/>
          <path id="XMLID_31_" d="M296.8,78.109c.218.105.446.206.682.3l-.969-5.344-.646.888Z" transform="translate(-283.761 -70.777)" fill="#d7df23"/>
          <path id="XMLID_30_" d="M297.066,72.3l1.063,5.86a9.934,9.934,0,0,0,1,.294l-1.421-7.041Z" transform="translate(-284.039 -70.395)" fill="#d7df23"/>
          <path id="XMLID_29_" d="M294.73,77.924l-.536-1.628-.54.743A11.086,11.086,0,0,0,294.73,77.924Z" transform="translate(-283.249 -71.525)" fill="#d7df23"/>
          <path id="XMLID_28_" d="M294.112,79.92l-.179-.114h-2.327l-.662.911Z" transform="translate(-282.62 -72.339)" fill="#d7df23"/>
          <path id="XMLID_27_" d="M293.719,79.121a12.907,12.907,0,0,1-1-.814l-.592.814Z" transform="translate(-282.894 -71.991)" fill="#d7df23"/>
          <path id="XMLID_26_" d="M301.171,78.944c.2.024.412.038.625.049V74.106l-1.072-1.474Z" transform="translate(-284.886 -70.677)" fill="#d7df23"/>
          <path id="XMLID_25_" d="M297.026,87.8q.519.8,1.044,1.664l2.211-7.338c-.181-.019-.36-.045-.535-.072Z" transform="translate(-284.03 -72.859)" fill="#d7df23"/>
          <path id="XMLID_24_" d="M292.376,93.233a16.034,16.034,0,0,1,.923,1.431l-2.585-11.57c-.27-.354-.524-.681-.758-.978l-.553.761Z" transform="translate(-282.264 -72.874)" fill="#d7df23"/>
          <path id="XMLID_23_" d="M293.254,83.721l3.025-2.549c-.124-.049-.248-.1-.369-.153l.008.025L292.1,82.168C292.456,82.638,292.844,83.159,293.254,83.721Z" transform="translate(-282.888 -72.62)" fill="#d7df23"/>
          <path id="XMLID_22_" d="M302.558,79.591c.194,0,.392,0,.592-.008l.256-3.264-.848-1.165Z" transform="translate(-285.311 -71.261)" fill="#d7df23"/>
          <path id="XMLID_21_" d="M295.569,86.057q.445.652.9,1.355l2.59-5.471c-.185-.036-.368-.078-.545-.121Z" transform="translate(-283.692 -72.805)" fill="#d7df23"/>
          <path id="XMLID_20_" d="M291.673,81.708l3.607-1.06c-.242-.12-.476-.243-.7-.373l-3.365.847C291.361,81.305,291.514,81.5,291.673,81.708Z" transform="translate(-282.684 -72.447)" fill="#d7df23"/>
          <path id="XMLID_19_" d="M285.44,91.636l-1.832.333c-.125.267-.245.536-.363.806l2.937-.625Q285.8,91.873,285.44,91.636Z" transform="translate(-280.837 -75.079)" fill="#d7df23"/>
          <path id="XMLID_18_" d="M287.212,93.708a26.117,26.117,0,0,0-4.98,1.283q-.206.572-.386,1.152a29.6,29.6,0,0,1,6.036-1.822Q287.547,94,287.212,93.708Z" transform="translate(-280.513 -75.559)" fill="#d7df23"/>
          <path id="XMLID_17_" d="M290.082,98.517c-.122-.2-.248-.4-.376-.589-3.208.543-7.841,3.972-9.464,5.238-.048.531-.084,1.064-.1,1.6C281.566,103.221,285.74,99.1,290.082,98.517Z" transform="translate(-280.117 -76.537)" fill="#d7df23"/>
          <path id="XMLID_16_" d="M288.031,94.894a28.95,28.95,0,0,0-6.465,1.942c-.138.459-.266.921-.379,1.388a26.657,26.657,0,0,1,7.321-2.826C288.35,95.225,288.191,95.055,288.031,94.894Z" transform="translate(-280.36 -75.834)" fill="#d7df23"/>
          <path id="XMLID_15_" d="M286.383,92.655l-3.466.737c-.13.312-.254.625-.373.943a26.789,26.789,0,0,1,4.482-1.166C286.81,92.988,286.595,92.816,286.383,92.655Z" transform="translate(-280.675 -75.315)" fill="#d7df23"/>
          <path id="XMLID_14_" d="M288.647,95.937a26.326,26.326,0,0,0-7.688,2.97q-.183.808-.322,1.627c1.856-1.242,5.7-3.646,8.389-4.145C288.9,96.234,288.774,96.082,288.647,95.937Z" transform="translate(-280.233 -76.076)" fill="#d7df23"/>
          <path id="XMLID_13_" d="M290.715,91.847c.29.309.575.633.854.977l-2.66-9.267-.55.756Z" transform="translate(-282.022 -73.208)" fill="#d7df23"/>
          <path id="XMLID_12_" d="M289.194,96.921c-2.724.422-6.949,3.116-8.7,4.3-.063.413-.115.828-.16,1.245,1.8-1.391,6.055-4.469,9.208-5.078C289.428,97.23,289.312,97.074,289.194,96.921Z" transform="translate(-280.162 -76.304)" fill="#d7df23"/>
          <path id="XMLID_11_" d="M285.188,91.133c-.307-.192-.6-.362-.861-.509-.128.243-.25.488-.372.734Z" transform="translate(-281.002 -74.845)" fill="#d7df23"/>
          <path id="XMLID_10_" d="M303.771,80.038c.239-.016.481-.042.728-.075l.27-1.678-.777-1.067Z" transform="translate(-285.592 -71.739)" fill="#d7df23"/>
          <path id="XMLID_9_" d="M287.626,90.052c.22.159.444.33.67.507l-1.188-4.407c-.1.137-.194.276-.29.416Z" transform="translate(-281.665 -73.809)" fill="#d7df23"/>
          <path id="XMLID_8_" d="M285.853,89.78l-.536-.857c-.08.135-.161.272-.239.408C285.32,89.463,285.578,89.611,285.853,89.78Z" transform="translate(-281.262 -74.451)" fill="#d7df23"/>
          <path id="XMLID_7_" d="M286.646,89.8l.292.2-.654-2.818q-.334.5-.645,1.013Z" transform="translate(-281.392 -74.046)" fill="#d7df23"/>
        </g>
      </g>
      <g id="XMLID_2_" transform="translate(34.808 55.44)">
        <path id="XMLID_4_" d="M314.335,154.248l-11.709-10.911a.9.9,0,1,1,1.229-1.327.575.575,0,0,1,.049.048l10.911,11.709a.34.34,0,0,1-.481.48Z" transform="translate(-284.33 -141.769)" fill="#d7df23"/>
        <path id="XMLID_3_" d="M279.473,154.248l11.709-10.911a.9.9,0,1,0-1.23-1.327c-.016.015-.033.031-.048.048l-10.912,11.709a.34.34,0,0,0,.482.48Z" transform="translate(-278.9 -141.769)" fill="#d7df23"/>
      </g>
    </g>
  </g>
</svg>
